<svg width="16" height="12" viewBox="0 0 16 12" fill="none" xmlns="http://www.w3.org/2000/svg">
<path d="M15.3764 1.33672C14.7988 0.650169 13.7325 0.370117 11.6961 0.370117H4.30379C2.22075 0.370117 1.13636 0.668234 0.560981 1.39918C0 2.11185 0 3.16191 0 4.61523V7.38524C0 10.2008 0.6656 11.6303 4.30379 11.6303H11.6961C13.4621 11.6303 14.4407 11.3832 15.0738 10.7773C15.723 10.156 16 9.14152 16 7.38524V4.61523C16 3.08258 15.9566 2.02632 15.3764 1.33672ZM10.2721 6.38266L6.91525 8.13703C6.84021 8.17626 6.75814 8.19572 6.67618 8.19572C6.58338 8.19572 6.49079 8.17074 6.40877 8.12108C6.25435 8.02751 6.16005 7.86013 6.16005 7.67959V4.18209C6.16005 4.00186 6.25409 3.83463 6.40821 3.74101C6.56237 3.64738 6.75412 3.64098 6.91406 3.72408L10.2709 5.46715C10.4417 5.55582 10.5489 5.73213 10.5492 5.92449C10.5494 6.11701 10.4426 6.29358 10.2721 6.38266Z" fill="white"/>
</svg>
